<svg width="582" height="667" viewBox="0 0 582 667" fill="none" xmlns="http://www.w3.org/2000/svg">
<path d="M238.356 361.471C219.071 355.775 198.483 356.145 179.39 362.559C159.651 369.19 142.537 381.936 130.529 398.949C118.522 415.962 112.246 436.357 112.612 457.177C112.977 477.997 119.965 498.16 132.562 514.741L132.562 514.741C144.966 531.05 162.168 543.061 181.751 549.089C201.334 555.116 222.313 554.856 241.741 548.346C261.168 541.835 278.068 529.401 290.064 512.79C302.06 496.18 308.551 476.228 308.623 455.739V455.733V1.5H420.456V14.7V14.7693L420.462 14.8383C423.631 49.0536 437.645 81.3623 460.463 107.055C483.28 132.747 513.707 150.479 547.309 157.667L547.313 157.668C557.919 159.905 568.72 161.075 579.556 161.162V272.265C523.346 272.055 468.575 254.385 422.828 221.68L420.456 219.984V222.9V455.767C420.454 497.405 408.043 538.099 384.809 572.652C361.575 607.206 328.572 634.053 290.012 649.765C251.451 665.478 209.084 669.343 168.317 660.869C127.549 652.394 90.2323 631.963 61.1291 602.185C30.6108 570.944 10.6206 530.946 3.9546 487.784C-2.71144 444.623 4.28008 400.457 23.9512 361.465C43.6224 322.473 74.9893 290.605 113.665 270.317C151.954 250.232 195.511 242.493 238.356 248.144V361.471Z" fill="white" stroke="black" stroke-width="3"/>
</svg>
