<svg width="600" height="111" viewBox="0 0 600 111" fill="none" xmlns="http://www.w3.org/2000/svg">
<path d="M24.1 38.4H60.8C61.7 38.4 62.4 37.7 62.4 36.8V5.10001C62.4 3.40001 63.8 2 65.5 2H81.8C83.5 2 84.9 3.40001 84.9 5.10001V93.5C84.9 95.2 83.5 96.6 81.8 96.6H65.5C63.8 96.6 62.4 95.2 62.4 93.5V60.9C62.4 60 61.7 59.3 60.8 59.3H24.1C23.2 59.3 22.5 60 22.5 60.9V93.5C22.5 95.2 21.1 96.6 19.4 96.6H3.1C1.4 96.6 0 95.2 0 93.5V5.10001C0 3.40001 1.4 2 3.1 2H19.4C21.1 2 22.5 3.40001 22.5 5.10001V36.8C22.6 37.7 23.3 38.4 24.1 38.4ZM489.1 24.6L474.6 32.9C473.2 33.7 471.5 33.4 470.6 32.1C465.7 25.4 458.5 21.8 449.6 21.8C434.6 21.8 423.6 33 423.6 49.2C423.6 66.8 435.7 76.6 449.7 76.6C458.3 76.6 465.6 73 470.9 66.5C471.9 65.2 473.8 65 475.1 66L488.6 75.5C490.1 76.5 490.3 78.6 489.2 80C480.4 91.3 466.8 98.2 450 98.2C420.8 98.2 400.2 77.8 400.2 49.1C400.2 20.4 420.8 0 450 0C466.8 0 481.8 7.30001 490.3 19.9C491.2 21.6 490.7 23.7 489.1 24.6ZM385.5 22.9H362.2C361.3 22.9 360.6 23.6 360.6 24.5V93.5C360.6 95.2 359.2 96.6 357.5 96.6H341.2C339.5 96.6 338.1 95.2 338.1 93.5V24.5C338.1 23.6 337.4 22.9 336.5 22.9H313.1C311.4 22.9 310 21.5 310 19.8V5.10001C310 3.40001 311.4 2 313.1 2H385.5C387.2 2 388.6 3.40001 388.6 5.10001V19.8C388.6 21.5 387.2 22.9 385.5 22.9ZM184.4 96.6H118.2C116.5 96.6 115.1 95.2 115.1 93.5V5.10001C115.1 3.40001 116.5 2 118.2 2H184.2C185.9 2 187.3 3.40001 187.3 5.10001V19.2C187.3 20.9 185.9 22.3 184.2 22.3H139.2C138.3 22.3 137.6 23 137.6 23.9V37.1C137.6 38 138.3 38.7 139.2 38.7H181.3C183 38.7 184.4 40.1 184.4 41.8V55.8C184.4 57.5 183 58.9 181.3 58.9H139.2C138.3 58.9 137.6 59.6 137.6 60.5V74.7C137.6 75.6 138.3 76.3 139.2 76.3H184.4C186.1 76.3 187.5 77.7 187.5 79.4V93.5C187.5 95.2 186.1 96.6 184.4 96.6ZM286.3 96.6H220.1C218.4 96.6 217 95.2 217 93.5V5.10001C217 3.40001 218.4 2 220.1 2H286.1C287.8 2 289.2 3.40001 289.2 5.10001V19.2C289.2 20.9 287.8 22.3 286.1 22.3H241.1C240.2 22.3 239.5 23 239.5 23.9V37.1C239.5 38 240.2 38.7 241.1 38.7H283.2C284.9 38.7 286.3 40.1 286.3 41.8V55.8C286.3 57.5 284.9 58.9 283.2 58.9H241.1C240.2 58.9 239.5 59.6 239.5 60.5V74.7C239.5 75.6 240.2 76.3 241.1 76.3H286.3C288 76.3 289.4 77.7 289.4 79.4V93.5C289.4 95.2 288 96.6 286.3 96.6ZM536.1 38.4H572.8C573.7 38.4 574.4 37.7 574.4 36.8V5C574.4 3.3 575.8 1.90001 577.5 1.90001H593.8C595.5 1.90001 596.9 3.3 596.9 5V56.1C596.9 57.8 595.5 59.2 593.8 59.2H574.3H536C535.1 59.2 534.4 59.9 534.4 60.8V93.4C534.4 95.1 533 96.5 531.3 96.5H515C513.3 96.5 511.9 95.1 511.9 93.4V5C511.9 3.3 513.3 1.90001 515 1.90001H531.3C533 1.90001 534.4 3.3 534.4 5V36.7C534.6 37.6 535.3 38.4 536.1 38.4ZM600 96.4C600 104.2 593.3 111 585.6 111C577.8 111 571.1 104.2 571.1 96.4C571.1 88.7 577.9 82.1 585.6 82.1C593.3 82.1 600 88.7 600 96.4Z" fill="#FF2773"/>
</svg>
